<?xml version="1.0" encoding="UTF-8"?>
<svg width="158px" height="158px" viewBox="0 0 158 158" version="1.1" xmlns="http://www.w3.org/2000/svg" xmlns:xlink="http://www.w3.org/1999/xlink">
    <!-- Generator: Sketch 40 (33762) - http://www.bohemiancoding.com/sketch -->
    <title>AD</title>
    <desc>Created with Sketch.</desc>
    <defs></defs>
    <g id="Juju-Icons" stroke="none" stroke-width="1" fill="none" fill-rule="evenodd">
        <g id="AD">
            <g id="Base" fill="#E7E9ED">
                <rect id="Rectangle" x="0" y="0" width="158" height="158"></rect>
            </g>
            <g id="Group-2-Copy" transform="translate(36.333738, 34.979167)" fill="#263156">
                <path d="M1.28740657,50.261979 C-0.229596274,52.1330042 0.0330447832,54.9095725 1.87541923,56.464789 L41.1715128,89.636078 C42.4000036,90.6730926 44.3956194,90.6698277 45.6202069,89.636078 L84.9151557,56.464789 C86.7568553,54.9100968 87.015142,52.1268768 85.5031512,50.261979 L46.1425889,1.71444431 C44.6256302,-0.156580864 42.1611504,-0.150453427 40.6491156,1.71444431 L1.28740657,50.261979 Z M67.8493798,60.0996701 C65.2621793,60.0996701 62.9572188,58.8959093 61.4506318,57.0174122 L50.3295896,65.393855 C51.1384164,66.6724407 51.6140432,68.1846899 51.6140432,69.8124581 C51.6140432,74.3715218 47.9344691,78.068131 43.3951082,78.068131 C38.857054,78.068131 35.1774799,74.3715218 35.1774799,69.8124581 C35.1774799,68.1846899 35.6531067,66.6724407 36.4619335,65.393855 L25.1618779,56.8835151 C23.659211,58.836837 21.3098238,60.0996701 18.6625166,60.0996701 C14.1231557,60.0996701 10.4448883,56.403061 10.4448883,51.8439972 C10.4448883,47.2836208 14.1231557,43.5870116 18.6625166,43.5870116 C20.567637,43.5870116 22.317264,44.2446825 23.710171,45.3381752 L36.5311869,31.4824545 C35.6779334,30.1802399 35.1774799,28.6246711 35.1774799,26.9483324 C35.1774799,22.3892686 38.857054,18.6926595 43.3951082,18.6926595 C47.9344691,18.6926595 51.6140432,22.3892686 51.6140432,26.9483324 C51.6140432,28.6233584 51.1135898,30.1802399 50.2603363,31.4811418 L62.9663655,45.2134671 C64.3331391,44.196112 66.0187394,43.5870116 67.8493798,43.5870116 C72.3887407,43.5870116 76.0670081,47.2836208 76.0670081,51.8439972 C76.0670081,56.403061 72.3887407,60.0996701 67.8493798,60.0996701 Z" id="Combined-Shape"></path>
                <path d="M45.352234,34.95984 L45.352234,61.8009504 C46.1009541,61.9847307 46.8078609,62.2682775 47.4598877,62.6424016 L59.7765302,53.3654354 C59.6850635,52.8718541 59.6314901,52.3638329 59.6314901,51.8426845 C59.6314901,50.5601607 59.9307169,49.3511489 60.4507703,48.2668453 L47.395861,34.1577704 C46.7621276,34.5135165 46.0748208,34.7826233 45.352234,34.95984" id="Fill-7"></path>
                <path d="M41.4396812,34.9599713 C40.7170944,34.7827546 40.0297876,34.5136478 39.3960541,34.1579016 L26.1569048,48.4665094 C26.6181582,49.4983044 26.8807983,50.6390549 26.8807983,51.8428158 C26.8807983,52.2983283 26.8350649,52.7420265 26.7645049,53.1765356 L39.3320274,62.6425329 C39.9840542,62.2684087 40.690961,61.984862 41.4396812,61.8010817 L41.4396812,34.9599713 Z" id="Fill-9"></path>
            </g>
        </g>
    </g>
</svg>